<mxfile host="65bd71144e">
    <diagram id="95LIQBZZa16p1nB436uD" name="第 1 页">
        <mxGraphModel dx="1442" dy="1376" grid="1" gridSize="10" guides="1" tooltips="1" connect="1" arrows="1" fold="1" page="1" pageScale="1" pageWidth="827" pageHeight="1169" math="0" shadow="0">
            <root>
                <mxCell id="0"/>
                <mxCell id="1" value="a" style="locked=1;" parent="0"/>
                <mxCell id="4" value="(a)&lt;font face=&quot;SimSun&quot;&gt;初始&lt;/font&gt;" style="text;html=1;align=center;verticalAlign=middle;resizable=0;points=[];autosize=1;strokeColor=none;fillColor=none;fontSize=19;fontFamily=Times New Roman;" vertex="1" parent="1">
                    <mxGeometry x="175" y="220" width="80" height="40" as="geometry"/>
                </mxCell>
                <mxCell id="29" value="" style="group" vertex="1" connectable="0" parent="1">
                    <mxGeometry x="30" y="42" width="370" height="140" as="geometry"/>
                </mxCell>
                <mxCell id="13" value="\n" style="ellipse;whiteSpace=wrap;html=1;fontSize=19;fontFamily=Times New Roman;" vertex="1" parent="29">
                    <mxGeometry x="310" y="80" width="40" height="40" as="geometry"/>
                </mxCell>
                <mxCell id="14" value="s" style="ellipse;whiteSpace=wrap;html=1;fontSize=19;fontFamily=Times New Roman;" vertex="1" parent="29">
                    <mxGeometry x="160" y="80" width="40" height="40" as="geometry"/>
                </mxCell>
                <mxCell id="15" value="t" style="ellipse;whiteSpace=wrap;html=1;fontSize=19;fontFamily=Times New Roman;" vertex="1" parent="29">
                    <mxGeometry x="210" y="80" width="40" height="40" as="geometry"/>
                </mxCell>
                <mxCell id="16" value="a" style="ellipse;whiteSpace=wrap;html=1;fontSize=19;fontFamily=Times New Roman;" vertex="1" parent="29">
                    <mxGeometry x="10" y="80" width="40" height="40" as="geometry"/>
                </mxCell>
                <mxCell id="17" value="i" style="ellipse;whiteSpace=wrap;html=1;fontSize=19;fontFamily=Times New Roman;" vertex="1" parent="29">
                    <mxGeometry x="110" y="80" width="40" height="40" as="geometry"/>
                </mxCell>
                <mxCell id="18" value="e" style="ellipse;whiteSpace=wrap;html=1;fontSize=19;fontFamily=Times New Roman;" vertex="1" parent="29">
                    <mxGeometry x="60" y="80" width="40" height="40" as="geometry"/>
                </mxCell>
                <mxCell id="19" value="r" style="ellipse;whiteSpace=wrap;html=1;fontSize=19;fontFamily=Times New Roman;" vertex="1" parent="29">
                    <mxGeometry x="260" y="80" width="40" height="40" as="geometry"/>
                </mxCell>
                <mxCell id="20" value="10" style="text;html=1;align=center;verticalAlign=middle;resizable=0;points=[];autosize=1;strokeColor=none;fillColor=none;fontFamily=Times New Roman;fontSize=19;" vertex="1" parent="29">
                    <mxGeometry x="10" y="45" width="40" height="40" as="geometry"/>
                </mxCell>
                <mxCell id="21" value="15" style="text;html=1;align=center;verticalAlign=middle;resizable=0;points=[];autosize=1;strokeColor=none;fillColor=none;fontFamily=Times New Roman;fontSize=19;" vertex="1" parent="29">
                    <mxGeometry x="60" y="45" width="40" height="40" as="geometry"/>
                </mxCell>
                <mxCell id="22" value="12" style="text;html=1;align=center;verticalAlign=middle;resizable=0;points=[];autosize=1;strokeColor=none;fillColor=none;fontFamily=Times New Roman;fontSize=19;" vertex="1" parent="29">
                    <mxGeometry x="110" y="45" width="40" height="40" as="geometry"/>
                </mxCell>
                <mxCell id="23" value="3" style="text;html=1;align=center;verticalAlign=middle;resizable=0;points=[];autosize=1;strokeColor=none;fillColor=none;fontFamily=Times New Roman;fontSize=19;" vertex="1" parent="29">
                    <mxGeometry x="165" y="45" width="30" height="40" as="geometry"/>
                </mxCell>
                <mxCell id="24" value="4" style="text;html=1;align=center;verticalAlign=middle;resizable=0;points=[];autosize=1;strokeColor=none;fillColor=none;fontFamily=Times New Roman;fontSize=19;" vertex="1" parent="29">
                    <mxGeometry x="215" y="45" width="30" height="40" as="geometry"/>
                </mxCell>
                <mxCell id="25" value="13" style="text;html=1;align=center;verticalAlign=middle;resizable=0;points=[];autosize=1;strokeColor=none;fillColor=none;fontFamily=Times New Roman;fontSize=19;" vertex="1" parent="29">
                    <mxGeometry x="260" y="45" width="40" height="40" as="geometry"/>
                </mxCell>
                <mxCell id="26" value="1" style="text;html=1;align=center;verticalAlign=middle;resizable=0;points=[];autosize=1;strokeColor=none;fillColor=none;fontFamily=Times New Roman;fontSize=19;" vertex="1" parent="29">
                    <mxGeometry x="315" y="45" width="30" height="40" as="geometry"/>
                </mxCell>
                <mxCell id="27" value="" style="rounded=0;whiteSpace=wrap;html=1;fillColor=none;fontColor=#F00;strokeColor=#FF0000;" vertex="1" parent="29">
                    <mxGeometry y="40" width="370" height="100" as="geometry"/>
                </mxCell>
                <mxCell id="28" value="Q" style="text;html=1;align=center;verticalAlign=middle;resizable=0;points=[];autosize=1;strokeColor=none;fillColor=none;fontSize=19;fontFamily=Times New Roman;fontColor=#F00;" vertex="1" parent="29">
                    <mxGeometry width="40" height="40" as="geometry"/>
                </mxCell>
                <mxCell id="5" value="b" style="locked=1;" parent="0"/>
                <mxCell id="6" value="(b)&lt;font face=&quot;SimSun&quot;&gt;第一次归并&lt;/font&gt;" style="text;html=1;align=center;verticalAlign=middle;resizable=0;points=[];autosize=1;strokeColor=none;fillColor=none;fontSize=19;fontFamily=Times New Roman;" vertex="1" parent="5">
                    <mxGeometry x="540" y="225" width="140" height="40" as="geometry"/>
                </mxCell>
                <mxCell id="47" value="" style="group" vertex="1" connectable="0" parent="5">
                    <mxGeometry x="420" y="60" width="380" height="125" as="geometry"/>
                </mxCell>
                <mxCell id="30" value="\n" style="ellipse;whiteSpace=wrap;html=1;fontSize=20;fontFamily=Times New Roman;" vertex="1" parent="47">
                    <mxGeometry x="20" y="85" width="40" height="40" as="geometry"/>
                </mxCell>
                <mxCell id="31" style="edgeStyle=none;html=1;fontSize=20;endArrow=none;endFill=0;fontFamily=Times New Roman;" edge="1" parent="47" source="32" target="30">
                    <mxGeometry relative="1" as="geometry">
                        <mxPoint x="40" y="75" as="sourcePoint"/>
                        <mxPoint x="50" y="95.00000000000006" as="targetPoint"/>
                    </mxGeometry>
                </mxCell>
                <mxCell id="32" value="4" style="ellipse;whiteSpace=wrap;html=1;fontSize=20;fontFamily=Times New Roman;" vertex="1" parent="47">
                    <mxGeometry x="50" y="35" width="40" height="40" as="geometry"/>
                </mxCell>
                <mxCell id="33" value="s" style="ellipse;whiteSpace=wrap;html=1;fontSize=20;fontFamily=Times New Roman;" vertex="1" parent="47">
                    <mxGeometry x="80" y="85" width="40" height="40" as="geometry"/>
                </mxCell>
                <mxCell id="34" style="edgeStyle=none;html=1;fontSize=20;endArrow=none;endFill=0;fontFamily=Times New Roman;" edge="1" parent="47" source="32" target="33">
                    <mxGeometry relative="1" as="geometry"/>
                </mxCell>
                <mxCell id="35" value="t" style="ellipse;whiteSpace=wrap;html=1;fontSize=19;fontFamily=Times New Roman;" vertex="1" parent="47">
                    <mxGeometry x="280" y="35" width="40" height="40" as="geometry"/>
                </mxCell>
                <mxCell id="36" value="a" style="ellipse;whiteSpace=wrap;html=1;fontSize=19;fontFamily=Times New Roman;" vertex="1" parent="47">
                    <mxGeometry x="130" y="35" width="40" height="40" as="geometry"/>
                </mxCell>
                <mxCell id="37" value="i" style="ellipse;whiteSpace=wrap;html=1;fontSize=19;fontFamily=Times New Roman;" vertex="1" parent="47">
                    <mxGeometry x="230" y="35" width="40" height="40" as="geometry"/>
                </mxCell>
                <mxCell id="38" value="e" style="ellipse;whiteSpace=wrap;html=1;fontSize=19;fontFamily=Times New Roman;" vertex="1" parent="47">
                    <mxGeometry x="180" y="35" width="40" height="40" as="geometry"/>
                </mxCell>
                <mxCell id="39" value="r" style="ellipse;whiteSpace=wrap;html=1;fontSize=19;fontFamily=Times New Roman;" vertex="1" parent="47">
                    <mxGeometry x="330" y="35" width="40" height="40" as="geometry"/>
                </mxCell>
                <mxCell id="40" value="10" style="text;html=1;align=center;verticalAlign=middle;resizable=0;points=[];autosize=1;strokeColor=none;fillColor=none;fontFamily=Times New Roman;fontSize=19;" vertex="1" parent="47">
                    <mxGeometry x="130" width="40" height="40" as="geometry"/>
                </mxCell>
                <mxCell id="41" value="15" style="text;html=1;align=center;verticalAlign=middle;resizable=0;points=[];autosize=1;strokeColor=none;fillColor=none;fontFamily=Times New Roman;fontSize=19;" vertex="1" parent="47">
                    <mxGeometry x="180" width="40" height="40" as="geometry"/>
                </mxCell>
                <mxCell id="42" value="12" style="text;html=1;align=center;verticalAlign=middle;resizable=0;points=[];autosize=1;strokeColor=none;fillColor=none;fontFamily=Times New Roman;fontSize=19;" vertex="1" parent="47">
                    <mxGeometry x="230" width="40" height="40" as="geometry"/>
                </mxCell>
                <mxCell id="43" value="4" style="text;html=1;align=center;verticalAlign=middle;resizable=0;points=[];autosize=1;strokeColor=none;fillColor=none;fontFamily=Times New Roman;fontSize=19;" vertex="1" parent="47">
                    <mxGeometry x="285" width="30" height="40" as="geometry"/>
                </mxCell>
                <mxCell id="44" value="13" style="text;html=1;align=center;verticalAlign=middle;resizable=0;points=[];autosize=1;strokeColor=none;fillColor=none;fontFamily=Times New Roman;fontSize=19;" vertex="1" parent="47">
                    <mxGeometry x="330" width="40" height="40" as="geometry"/>
                </mxCell>
                <mxCell id="45" value="" style="rounded=0;whiteSpace=wrap;html=1;fillColor=none;fontColor=#F00;strokeColor=#FF0000;" vertex="1" parent="47">
                    <mxGeometry x="40" y="5" width="340" height="75" as="geometry"/>
                </mxCell>
                <mxCell id="46" value="Q" style="text;html=1;align=center;verticalAlign=middle;resizable=0;points=[];autosize=1;strokeColor=none;fillColor=none;fontSize=19;fontFamily=Times New Roman;fontColor=#F00;" vertex="1" parent="47">
                    <mxGeometry y="5" width="40" height="40" as="geometry"/>
                </mxCell>
                <mxCell id="7" value="c" style="locked=1;" parent="0"/>
                <mxCell id="8" value="(c)&lt;font face=&quot;SimSun&quot;&gt;第二次归并&lt;/font&gt;" style="text;html=1;align=center;verticalAlign=middle;resizable=0;points=[];autosize=1;strokeColor=none;fillColor=none;fontSize=19;fontFamily=Times New Roman;" vertex="1" parent="7">
                    <mxGeometry x="930" y="225" width="140" height="40" as="geometry"/>
                </mxCell>
                <mxCell id="67" value="" style="group" vertex="1" connectable="0" parent="7">
                    <mxGeometry x="827" y="60" width="340" height="175" as="geometry"/>
                </mxCell>
                <mxCell id="48" value="\n" style="ellipse;whiteSpace=wrap;html=1;fontSize=20;fontFamily=Times New Roman;" vertex="1" parent="67">
                    <mxGeometry y="135" width="40" height="40" as="geometry"/>
                </mxCell>
                <mxCell id="49" style="edgeStyle=none;html=1;fontSize=20;endArrow=none;endFill=0;fontFamily=Times New Roman;" edge="1" parent="67" source="50" target="48">
                    <mxGeometry relative="1" as="geometry">
                        <mxPoint x="20" y="125" as="sourcePoint"/>
                        <mxPoint x="30" y="145.00000000000006" as="targetPoint"/>
                    </mxGeometry>
                </mxCell>
                <mxCell id="50" value="4" style="ellipse;whiteSpace=wrap;html=1;fontSize=20;fontFamily=Times New Roman;" vertex="1" parent="67">
                    <mxGeometry x="30" y="85" width="40" height="40" as="geometry"/>
                </mxCell>
                <mxCell id="51" value="s" style="ellipse;whiteSpace=wrap;html=1;fontSize=20;fontFamily=Times New Roman;" vertex="1" parent="67">
                    <mxGeometry x="60" y="135" width="40" height="40" as="geometry"/>
                </mxCell>
                <mxCell id="52" style="edgeStyle=none;html=1;fontSize=20;endArrow=none;endFill=0;fontFamily=Times New Roman;" edge="1" parent="67" source="50" target="51">
                    <mxGeometry relative="1" as="geometry"/>
                </mxCell>
                <mxCell id="53" value="t" style="ellipse;whiteSpace=wrap;html=1;fontSize=20;fontFamily=Times New Roman;" vertex="1" parent="67">
                    <mxGeometry x="90" y="85" width="40" height="40" as="geometry"/>
                </mxCell>
                <mxCell id="54" style="edgeStyle=none;html=1;fontSize=20;endArrow=none;endFill=0;fontFamily=Times New Roman;" edge="1" parent="67" source="56" target="50">
                    <mxGeometry relative="1" as="geometry"/>
                </mxCell>
                <mxCell id="55" style="edgeStyle=none;html=1;fontSize=20;endArrow=none;endFill=0;fontFamily=Times New Roman;" edge="1" parent="67" source="56" target="53">
                    <mxGeometry relative="1" as="geometry"/>
                </mxCell>
                <mxCell id="56" value="8" style="ellipse;whiteSpace=wrap;html=1;fontSize=20;fontFamily=Times New Roman;" vertex="1" parent="67">
                    <mxGeometry x="60" y="35" width="40" height="40" as="geometry"/>
                </mxCell>
                <mxCell id="57" value="a" style="ellipse;whiteSpace=wrap;html=1;fontSize=19;fontFamily=Times New Roman;" vertex="1" parent="67">
                    <mxGeometry x="140" y="35" width="40" height="40" as="geometry"/>
                </mxCell>
                <mxCell id="58" value="i" style="ellipse;whiteSpace=wrap;html=1;fontSize=19;fontFamily=Times New Roman;" vertex="1" parent="67">
                    <mxGeometry x="240" y="35" width="40" height="40" as="geometry"/>
                </mxCell>
                <mxCell id="59" value="e" style="ellipse;whiteSpace=wrap;html=1;fontSize=19;fontFamily=Times New Roman;" vertex="1" parent="67">
                    <mxGeometry x="190" y="35" width="40" height="40" as="geometry"/>
                </mxCell>
                <mxCell id="60" value="r" style="ellipse;whiteSpace=wrap;html=1;fontSize=19;fontFamily=Times New Roman;" vertex="1" parent="67">
                    <mxGeometry x="290" y="35" width="40" height="40" as="geometry"/>
                </mxCell>
                <mxCell id="61" value="10" style="text;html=1;align=center;verticalAlign=middle;resizable=0;points=[];autosize=1;strokeColor=none;fillColor=none;fontFamily=Times New Roman;fontSize=19;" vertex="1" parent="67">
                    <mxGeometry x="140" width="40" height="40" as="geometry"/>
                </mxCell>
                <mxCell id="62" value="15" style="text;html=1;align=center;verticalAlign=middle;resizable=0;points=[];autosize=1;strokeColor=none;fillColor=none;fontFamily=Times New Roman;fontSize=19;" vertex="1" parent="67">
                    <mxGeometry x="190" width="40" height="40" as="geometry"/>
                </mxCell>
                <mxCell id="63" value="12" style="text;html=1;align=center;verticalAlign=middle;resizable=0;points=[];autosize=1;strokeColor=none;fillColor=none;fontFamily=Times New Roman;fontSize=19;" vertex="1" parent="67">
                    <mxGeometry x="240" width="40" height="40" as="geometry"/>
                </mxCell>
                <mxCell id="64" value="13" style="text;html=1;align=center;verticalAlign=middle;resizable=0;points=[];autosize=1;strokeColor=none;fillColor=none;fontFamily=Times New Roman;fontSize=19;" vertex="1" parent="67">
                    <mxGeometry x="290" width="40" height="40" as="geometry"/>
                </mxCell>
                <mxCell id="65" value="" style="rounded=0;whiteSpace=wrap;html=1;fillColor=none;fontColor=#F00;strokeColor=#FF0000;" vertex="1" parent="67">
                    <mxGeometry x="50" y="5" width="290" height="75" as="geometry"/>
                </mxCell>
                <mxCell id="66" value="Q" style="text;html=1;align=center;verticalAlign=middle;resizable=0;points=[];autosize=1;strokeColor=none;fillColor=none;fontSize=19;fontFamily=Times New Roman;fontColor=#F00;" vertex="1" parent="67">
                    <mxGeometry x="10" y="5" width="40" height="40" as="geometry"/>
                </mxCell>
                <mxCell id="9" value="d" style="locked=1;" parent="0"/>
                <mxCell id="10" value="(d)&lt;font face=&quot;SimSun&quot;&gt;第三次归并&lt;/font&gt;" style="text;html=1;align=center;verticalAlign=middle;resizable=0;points=[];autosize=1;strokeColor=none;fillColor=none;fontSize=19;fontFamily=Times New Roman;" vertex="1" parent="9">
                    <mxGeometry x="140" y="500" width="140" height="40" as="geometry"/>
                </mxCell>
                <mxCell id="90" value="" style="group" vertex="1" connectable="0" parent="9">
                    <mxGeometry x="50" y="280" width="320" height="220.31999999999994" as="geometry"/>
                </mxCell>
                <mxCell id="69" value="\n" style="ellipse;whiteSpace=wrap;html=1;fontSize=20;fontFamily=Times New Roman;" vertex="1" parent="90">
                    <mxGeometry y="180.32" width="40" height="40" as="geometry"/>
                </mxCell>
                <mxCell id="70" style="edgeStyle=none;html=1;fontSize=20;endArrow=none;endFill=0;fontFamily=Times New Roman;" edge="1" parent="90" source="71" target="69">
                    <mxGeometry relative="1" as="geometry">
                        <mxPoint x="20" y="170.32" as="sourcePoint"/>
                        <mxPoint x="30" y="190.32000000000005" as="targetPoint"/>
                    </mxGeometry>
                </mxCell>
                <mxCell id="71" value="4" style="ellipse;whiteSpace=wrap;html=1;fontSize=20;fontFamily=Times New Roman;" vertex="1" parent="90">
                    <mxGeometry x="30" y="130.32" width="40" height="40" as="geometry"/>
                </mxCell>
                <mxCell id="72" value="s" style="ellipse;whiteSpace=wrap;html=1;fontSize=20;fontFamily=Times New Roman;" vertex="1" parent="90">
                    <mxGeometry x="60" y="180.32" width="40" height="40" as="geometry"/>
                </mxCell>
                <mxCell id="73" style="edgeStyle=none;html=1;fontSize=20;endArrow=none;endFill=0;fontFamily=Times New Roman;" edge="1" parent="90" source="71" target="72">
                    <mxGeometry relative="1" as="geometry"/>
                </mxCell>
                <mxCell id="74" value="t" style="ellipse;whiteSpace=wrap;html=1;fontSize=20;fontFamily=Times New Roman;" vertex="1" parent="90">
                    <mxGeometry x="90" y="130.32" width="40" height="40" as="geometry"/>
                </mxCell>
                <mxCell id="75" value="a" style="ellipse;whiteSpace=wrap;html=1;fontSize=20;fontFamily=Times New Roman;" vertex="1" parent="90">
                    <mxGeometry x="120" y="80.32" width="40" height="40" as="geometry"/>
                </mxCell>
                <mxCell id="76" style="edgeStyle=none;html=1;fontSize=20;endArrow=none;endFill=0;fontFamily=Times New Roman;" edge="1" parent="90" source="78" target="71">
                    <mxGeometry relative="1" as="geometry"/>
                </mxCell>
                <mxCell id="77" style="edgeStyle=none;html=1;fontSize=20;endArrow=none;endFill=0;fontFamily=Times New Roman;" edge="1" parent="90" source="78" target="74">
                    <mxGeometry relative="1" as="geometry"/>
                </mxCell>
                <mxCell id="78" value="8" style="ellipse;whiteSpace=wrap;html=1;fontSize=20;fontFamily=Times New Roman;" vertex="1" parent="90">
                    <mxGeometry x="60" y="80.32" width="40" height="40" as="geometry"/>
                </mxCell>
                <mxCell id="79" style="edgeStyle=none;html=1;fontSize=20;endArrow=none;endFill=0;fontFamily=Times New Roman;" edge="1" parent="90" source="81" target="78">
                    <mxGeometry relative="1" as="geometry">
                        <mxPoint x="86.42229123600043" y="69.99739820199767" as="sourcePoint"/>
                    </mxGeometry>
                </mxCell>
                <mxCell id="80" style="edgeStyle=none;html=1;fontSize=20;endArrow=none;endFill=0;fontFamily=Times New Roman;" edge="1" parent="90" source="81" target="75">
                    <mxGeometry relative="1" as="geometry"/>
                </mxCell>
                <mxCell id="81" value="18" style="ellipse;whiteSpace=wrap;html=1;fontSize=20;fontFamily=Times New Roman;" vertex="1" parent="90">
                    <mxGeometry x="90" y="35" width="40" height="40" as="geometry"/>
                </mxCell>
                <mxCell id="82" value="i" style="ellipse;whiteSpace=wrap;html=1;fontSize=19;fontFamily=Times New Roman;" vertex="1" parent="90">
                    <mxGeometry x="220" y="35" width="40" height="40" as="geometry"/>
                </mxCell>
                <mxCell id="83" value="e" style="ellipse;whiteSpace=wrap;html=1;fontSize=19;fontFamily=Times New Roman;" vertex="1" parent="90">
                    <mxGeometry x="170" y="35" width="40" height="40" as="geometry"/>
                </mxCell>
                <mxCell id="84" value="r" style="ellipse;whiteSpace=wrap;html=1;fontSize=19;fontFamily=Times New Roman;" vertex="1" parent="90">
                    <mxGeometry x="270" y="35" width="40" height="40" as="geometry"/>
                </mxCell>
                <mxCell id="85" value="15" style="text;html=1;align=center;verticalAlign=middle;resizable=0;points=[];autosize=1;strokeColor=none;fillColor=none;fontFamily=Times New Roman;fontSize=19;" vertex="1" parent="90">
                    <mxGeometry x="170" width="40" height="40" as="geometry"/>
                </mxCell>
                <mxCell id="86" value="12" style="text;html=1;align=center;verticalAlign=middle;resizable=0;points=[];autosize=1;strokeColor=none;fillColor=none;fontFamily=Times New Roman;fontSize=19;" vertex="1" parent="90">
                    <mxGeometry x="220" width="40" height="40" as="geometry"/>
                </mxCell>
                <mxCell id="87" value="13" style="text;html=1;align=center;verticalAlign=middle;resizable=0;points=[];autosize=1;strokeColor=none;fillColor=none;fontFamily=Times New Roman;fontSize=19;" vertex="1" parent="90">
                    <mxGeometry x="270" width="40" height="40" as="geometry"/>
                </mxCell>
                <mxCell id="88" value="" style="rounded=0;whiteSpace=wrap;html=1;fillColor=none;fontColor=#F00;strokeColor=#FF0000;" vertex="1" parent="90">
                    <mxGeometry x="80" y="2.5" width="240" height="75" as="geometry"/>
                </mxCell>
                <mxCell id="89" value="Q" style="text;html=1;align=center;verticalAlign=middle;resizable=0;points=[];autosize=1;strokeColor=none;fillColor=none;fontSize=19;fontFamily=Times New Roman;fontColor=#F00;" vertex="1" parent="90">
                    <mxGeometry x="40" y="2.5" width="40" height="40" as="geometry"/>
                </mxCell>
                <mxCell id="11" value="e" style="locked=1;" parent="0"/>
                <mxCell id="12" value="(e)&lt;font face=&quot;SimSun&quot;&gt;第四次归并&lt;/font&gt;" style="text;html=1;align=center;verticalAlign=middle;resizable=0;points=[];autosize=1;strokeColor=none;fillColor=none;fontSize=19;fontFamily=Times New Roman;" vertex="1" parent="11">
                    <mxGeometry x="535" y="500" width="140" height="40" as="geometry"/>
                </mxCell>
                <mxCell id="113" value="" style="group" vertex="1" connectable="0" parent="11">
                    <mxGeometry x="440" y="276" width="340" height="224.9999999999999" as="geometry"/>
                </mxCell>
                <mxCell id="91" value="\n" style="ellipse;whiteSpace=wrap;html=1;fontSize=20;fontFamily=Times New Roman;" vertex="1" parent="113">
                    <mxGeometry y="184.9999999999999" width="40" height="40" as="geometry"/>
                </mxCell>
                <mxCell id="92" style="edgeStyle=none;html=1;fontSize=20;endArrow=none;endFill=0;fontFamily=Times New Roman;" edge="1" parent="113" source="93" target="91">
                    <mxGeometry relative="1" as="geometry">
                        <mxPoint x="20" y="174.99999999999994" as="sourcePoint"/>
                        <mxPoint x="30" y="195" as="targetPoint"/>
                    </mxGeometry>
                </mxCell>
                <mxCell id="93" value="4" style="ellipse;whiteSpace=wrap;html=1;fontSize=20;fontFamily=Times New Roman;" vertex="1" parent="113">
                    <mxGeometry x="30" y="135" width="40" height="40" as="geometry"/>
                </mxCell>
                <mxCell id="94" value="s" style="ellipse;whiteSpace=wrap;html=1;fontSize=20;fontFamily=Times New Roman;" vertex="1" parent="113">
                    <mxGeometry x="60" y="184.9999999999999" width="40" height="40" as="geometry"/>
                </mxCell>
                <mxCell id="95" style="edgeStyle=none;html=1;fontSize=20;endArrow=none;endFill=0;fontFamily=Times New Roman;" edge="1" parent="113" source="93" target="94">
                    <mxGeometry relative="1" as="geometry"/>
                </mxCell>
                <mxCell id="96" value="t" style="ellipse;whiteSpace=wrap;html=1;fontSize=20;fontFamily=Times New Roman;" vertex="1" parent="113">
                    <mxGeometry x="90" y="135" width="40" height="40" as="geometry"/>
                </mxCell>
                <mxCell id="97" value="a" style="ellipse;whiteSpace=wrap;html=1;fontSize=20;fontFamily=Times New Roman;" vertex="1" parent="113">
                    <mxGeometry x="120" y="85" width="40" height="40" as="geometry"/>
                </mxCell>
                <mxCell id="98" style="edgeStyle=none;html=1;fontSize=20;endArrow=none;endFill=0;fontFamily=Times New Roman;" edge="1" parent="113" source="100" target="93">
                    <mxGeometry relative="1" as="geometry"/>
                </mxCell>
                <mxCell id="99" style="edgeStyle=none;html=1;fontSize=20;endArrow=none;endFill=0;fontFamily=Times New Roman;" edge="1" parent="113" source="100" target="96">
                    <mxGeometry relative="1" as="geometry"/>
                </mxCell>
                <mxCell id="100" value="8" style="ellipse;whiteSpace=wrap;html=1;fontSize=20;fontFamily=Times New Roman;" vertex="1" parent="113">
                    <mxGeometry x="60" y="85" width="40" height="40" as="geometry"/>
                </mxCell>
                <mxCell id="101" value="i" style="ellipse;whiteSpace=wrap;html=1;fontSize=20;fontFamily=Times New Roman;" vertex="1" parent="113">
                    <mxGeometry x="180" y="85" width="40" height="40" as="geometry"/>
                </mxCell>
                <mxCell id="102" value="r" style="ellipse;whiteSpace=wrap;html=1;fontSize=20;fontFamily=Times New Roman;" vertex="1" parent="113">
                    <mxGeometry x="240" y="85" width="40" height="40" as="geometry"/>
                </mxCell>
                <mxCell id="103" style="edgeStyle=none;html=1;fontSize=20;endArrow=none;endFill=0;fontFamily=Times New Roman;" edge="1" parent="113" source="105" target="101">
                    <mxGeometry relative="1" as="geometry"/>
                </mxCell>
                <mxCell id="104" style="edgeStyle=none;html=1;fontSize=20;endArrow=none;endFill=0;fontFamily=Times New Roman;" edge="1" parent="113" source="105" target="102">
                    <mxGeometry relative="1" as="geometry">
                        <mxPoint x="250" y="95" as="targetPoint"/>
                    </mxGeometry>
                </mxCell>
                <mxCell id="105" value="25" style="ellipse;whiteSpace=wrap;html=1;fontSize=20;fontFamily=Times New Roman;" vertex="1" parent="113">
                    <mxGeometry x="210" y="35" width="40" height="40" as="geometry"/>
                </mxCell>
                <mxCell id="106" style="edgeStyle=none;html=1;fontSize=20;endArrow=none;endFill=0;fontFamily=Times New Roman;" edge="1" parent="113" source="108" target="100">
                    <mxGeometry relative="1" as="geometry">
                        <mxPoint x="86.42229123600043" y="79.99739820199767" as="sourcePoint"/>
                    </mxGeometry>
                </mxCell>
                <mxCell id="107" style="edgeStyle=none;html=1;fontSize=20;endArrow=none;endFill=0;fontFamily=Times New Roman;" edge="1" parent="113" source="108" target="97">
                    <mxGeometry relative="1" as="geometry"/>
                </mxCell>
                <mxCell id="108" value="18" style="ellipse;whiteSpace=wrap;html=1;fontSize=20;fontFamily=Times New Roman;" vertex="1" parent="113">
                    <mxGeometry x="90" y="35" width="40" height="40" as="geometry"/>
                </mxCell>
                <mxCell id="109" value="e" style="ellipse;whiteSpace=wrap;html=1;fontSize=19;fontFamily=Times New Roman;" vertex="1" parent="113">
                    <mxGeometry x="290" y="35" width="40" height="40" as="geometry"/>
                </mxCell>
                <mxCell id="110" value="15" style="text;html=1;align=center;verticalAlign=middle;resizable=0;points=[];autosize=1;strokeColor=none;fillColor=none;fontFamily=Times New Roman;fontSize=19;" vertex="1" parent="113">
                    <mxGeometry x="290" width="40" height="40" as="geometry"/>
                </mxCell>
                <mxCell id="111" value="" style="rounded=0;whiteSpace=wrap;html=1;fillColor=none;fontColor=#F00;strokeColor=#FF0000;" vertex="1" parent="113">
                    <mxGeometry x="80" y="2.5" width="260" height="75" as="geometry"/>
                </mxCell>
                <mxCell id="112" value="Q" style="text;html=1;align=center;verticalAlign=middle;resizable=0;points=[];autosize=1;strokeColor=none;fillColor=none;fontSize=19;fontFamily=Times New Roman;fontColor=#F00;" vertex="1" parent="113">
                    <mxGeometry x="40" y="2.5" width="40" height="40" as="geometry"/>
                </mxCell>
                <mxCell id="139" value="f" style="" parent="0"/>
                <mxCell id="138" value="" style="group" vertex="1" connectable="0" parent="139">
                    <mxGeometry x="827" y="266" width="310" height="250.31999999999994" as="geometry"/>
                </mxCell>
                <mxCell id="114" value="\n" style="ellipse;whiteSpace=wrap;html=1;fontSize=20;fontFamily=Times New Roman;" vertex="1" parent="138">
                    <mxGeometry y="210.31999999999994" width="40" height="40" as="geometry"/>
                </mxCell>
                <mxCell id="115" style="edgeStyle=none;html=1;fontSize=20;endArrow=none;endFill=0;fontFamily=Times New Roman;" edge="1" parent="138" source="116" target="114">
                    <mxGeometry relative="1" as="geometry">
                        <mxPoint x="20" y="200.32" as="sourcePoint"/>
                        <mxPoint x="30" y="220.32000000000005" as="targetPoint"/>
                    </mxGeometry>
                </mxCell>
                <mxCell id="116" value="4" style="ellipse;whiteSpace=wrap;html=1;fontSize=20;fontFamily=Times New Roman;" vertex="1" parent="138">
                    <mxGeometry x="30" y="160.32" width="40" height="40" as="geometry"/>
                </mxCell>
                <mxCell id="117" value="s" style="ellipse;whiteSpace=wrap;html=1;fontSize=20;fontFamily=Times New Roman;" vertex="1" parent="138">
                    <mxGeometry x="60" y="210.31999999999994" width="40" height="40" as="geometry"/>
                </mxCell>
                <mxCell id="118" style="edgeStyle=none;html=1;fontSize=20;endArrow=none;endFill=0;fontFamily=Times New Roman;" edge="1" parent="138" source="116" target="117">
                    <mxGeometry relative="1" as="geometry"/>
                </mxCell>
                <mxCell id="119" value="t" style="ellipse;whiteSpace=wrap;html=1;fontSize=20;fontFamily=Times New Roman;" vertex="1" parent="138">
                    <mxGeometry x="90" y="160.32" width="40" height="40" as="geometry"/>
                </mxCell>
                <mxCell id="120" value="a" style="ellipse;whiteSpace=wrap;html=1;fontSize=20;fontFamily=Times New Roman;" vertex="1" parent="138">
                    <mxGeometry x="120" y="110.32" width="40" height="40" as="geometry"/>
                </mxCell>
                <mxCell id="121" style="edgeStyle=none;html=1;fontSize=20;endArrow=none;endFill=0;fontFamily=Times New Roman;" edge="1" parent="138" source="123" target="116">
                    <mxGeometry relative="1" as="geometry"/>
                </mxCell>
                <mxCell id="122" style="edgeStyle=none;html=1;fontSize=20;endArrow=none;endFill=0;fontFamily=Times New Roman;" edge="1" parent="138" source="123" target="119">
                    <mxGeometry relative="1" as="geometry"/>
                </mxCell>
                <mxCell id="123" value="8" style="ellipse;whiteSpace=wrap;html=1;fontSize=20;fontFamily=Times New Roman;" vertex="1" parent="138">
                    <mxGeometry x="60" y="110.32" width="40" height="40" as="geometry"/>
                </mxCell>
                <mxCell id="124" value="i" style="ellipse;whiteSpace=wrap;html=1;fontSize=20;fontFamily=Times New Roman;" vertex="1" parent="138">
                    <mxGeometry x="210" y="60" width="40" height="40" as="geometry"/>
                </mxCell>
                <mxCell id="125" value="e" style="ellipse;whiteSpace=wrap;html=1;fontSize=20;fontFamily=Times New Roman;" vertex="1" parent="138">
                    <mxGeometry x="150" y="60" width="40" height="40" as="geometry"/>
                </mxCell>
                <mxCell id="126" value="r" style="ellipse;whiteSpace=wrap;html=1;fontSize=20;fontFamily=Times New Roman;" vertex="1" parent="138">
                    <mxGeometry x="270" y="60" width="40" height="40" as="geometry"/>
                </mxCell>
                <mxCell id="127" style="edgeStyle=none;html=1;fontSize=20;endArrow=none;endFill=0;fontFamily=Times New Roman;" edge="1" parent="138" source="129" target="124">
                    <mxGeometry relative="1" as="geometry"/>
                </mxCell>
                <mxCell id="128" style="edgeStyle=none;html=1;fontSize=20;endArrow=none;endFill=0;fontFamily=Times New Roman;" edge="1" parent="138" source="129" target="126">
                    <mxGeometry relative="1" as="geometry">
                        <mxPoint x="280" y="70" as="targetPoint"/>
                    </mxGeometry>
                </mxCell>
                <mxCell id="129" value="25" style="ellipse;whiteSpace=wrap;html=1;fontSize=20;fontFamily=Times New Roman;" vertex="1" parent="138">
                    <mxGeometry x="240" y="10" width="40" height="40" as="geometry"/>
                </mxCell>
                <mxCell id="130" style="edgeStyle=none;html=1;fontSize=20;endArrow=none;endFill=0;fontFamily=Times New Roman;" edge="1" parent="138" source="132" target="123">
                    <mxGeometry relative="1" as="geometry">
                        <mxPoint x="86.42229123600043" y="99.99739820199767" as="sourcePoint"/>
                    </mxGeometry>
                </mxCell>
                <mxCell id="131" style="edgeStyle=none;html=1;fontSize=20;endArrow=none;endFill=0;fontFamily=Times New Roman;" edge="1" parent="138" source="132" target="120">
                    <mxGeometry relative="1" as="geometry"/>
                </mxCell>
                <mxCell id="132" value="18" style="ellipse;whiteSpace=wrap;html=1;fontSize=20;fontFamily=Times New Roman;" vertex="1" parent="138">
                    <mxGeometry x="90" y="60" width="40" height="40" as="geometry"/>
                </mxCell>
                <mxCell id="133" style="edgeStyle=none;html=1;fontSize=20;endArrow=none;endFill=0;fontFamily=Times New Roman;" edge="1" parent="138" source="135" target="132">
                    <mxGeometry relative="1" as="geometry"/>
                </mxCell>
                <mxCell id="134" style="edgeStyle=none;html=1;fontSize=20;endArrow=none;endFill=0;fontFamily=Times New Roman;" edge="1" parent="138" source="135" target="125">
                    <mxGeometry relative="1" as="geometry">
                        <mxPoint x="120" y="20" as="targetPoint"/>
                    </mxGeometry>
                </mxCell>
                <mxCell id="135" value="33" style="ellipse;whiteSpace=wrap;html=1;fontSize=20;fontFamily=Times New Roman;" vertex="1" parent="138">
                    <mxGeometry x="120" y="10" width="40" height="40" as="geometry"/>
                </mxCell>
                <mxCell id="142" value="" style="edgeStyle=none;html=1;" edge="1" parent="138" source="136" target="8">
                    <mxGeometry relative="1" as="geometry"/>
                </mxCell>
                <mxCell id="136" value="" style="rounded=0;whiteSpace=wrap;html=1;fillColor=none;fontColor=#F00;strokeColor=#FF0000;" vertex="1" parent="138">
                    <mxGeometry x="110" width="180" height="55" as="geometry"/>
                </mxCell>
                <mxCell id="137" value="Q" style="text;html=1;align=center;verticalAlign=middle;resizable=0;points=[];autosize=1;strokeColor=none;fillColor=none;fontSize=19;fontFamily=Times New Roman;fontColor=#F00;" vertex="1" parent="138">
                    <mxGeometry x="70" width="40" height="40" as="geometry"/>
                </mxCell>
                <mxCell id="140" value="(f)&lt;font face=&quot;SimSun&quot;&gt;第五次归并&lt;/font&gt;" style="text;html=1;align=center;verticalAlign=middle;resizable=0;points=[];autosize=1;strokeColor=none;fillColor=none;fontSize=19;fontFamily=Times New Roman;" vertex="1" parent="139">
                    <mxGeometry x="930" y="500" width="140" height="40" as="geometry"/>
                </mxCell>
            </root>
        </mxGraphModel>
    </diagram>
</mxfile>